<svg width="20" height="13" xmlns="http://www.w3.org/2000/svg"><g fill-rule="nonzero" fill="none"><path d="M13.922 5.703a2.5 2.5 0 0 0-1.43-2.256A2.5 2.5 0 0 0 10 1.067a2.5 2.5 0 0 0-2.493 2.38 2.5 2.5 0 0 0-1.43 2.256A2.5 2.5 0 0 0 7.6 8.002l2.08 4.276a.357.357 0 0 0 .64 0l2.08-4.276a2.5 2.5 0 0 0 1.523-2.299h-.001zm-2.496 1.783H8.573c-.983 0-1.783-.8-1.783-1.783a1.785 1.785 0 0 1 2.377-1.681.356.356 0 1 0 .238-.673 2.495 2.495 0 0 0-1.157-.12 1.786 1.786 0 0 1 1.75-1.448 1.784 1.784 0 0 1 1.33 2.972.356.356 0 1 0 .53.475c.262-.293.45-.64.55-1.012.49.325.8.88.8 1.487 0 .983-.8 1.783-1.784 1.783h.002z" fill="#272727"/><g fill="#000"><path d="M19.237 3.777h-4.074c-.278 0-.463.236-.463.591s.185.59.463.59h4.074c.278 0 .463-.235.463-.59s-.231-.59-.463-.59zM5 4.368c0-.355-.19-.59-.476-.59H.476c-.286 0-.476.235-.476.59s.19.59.476.59h4.048c.238 0 .476-.235.476-.59zM14.504 2.704c.051 0 .155 0 .206-.059l2.993-1.536c.257-.118.36-.473.257-.768a.489.489 0 0 0-.67-.296l-2.993 1.537c-.257.118-.36.472-.257.768.103.177.31.354.464.354zM1.836 1.18l2.986 1.457c.05 0 .1.063.199.063a.45.45 0 0 0 .448-.38c.1-.317-.05-.697-.299-.823L2.184.04c-.249-.127-.547.063-.647.38-.1.253 0 .633.299.76zM18.064 7.462L15.078 6.04c-.249-.124-.547.062-.647.371-.1.31.05.68.299.805l2.986 1.423c.05 0 .1.062.199.062.199 0 .398-.124.448-.371.1-.372 0-.743-.299-.867zM5.46 6.34c-.103-.295-.412-.413-.67-.295L1.797 7.582c-.257.118-.36.472-.257.768.103.236.257.354.464.354.051 0 .155 0 .206-.059L5.203 7.11c.257-.118.36-.473.257-.768z"/></g></g></svg>