<?xml version="1.0" standalone="no"?>
<!DOCTYPE svg PUBLIC "-//W3C//DTD SVG 20010904//EN"
 "http://www.w3.org/TR/2001/REC-SVG-20010904/DTD/svg10.dtd">
<svg version="1.0" xmlns="http://www.w3.org/2000/svg"
 width="512.000000pt" height="512.000000pt" viewBox="0 0 512.000000 512.000000"
 preserveAspectRatio="xMidYMid meet">
<metadata>
Created by potrace 1.11, written by Peter Selinger 2001-2013
</metadata>
<g transform="translate(0.000000,512.000000) scale(0.100000,-0.100000)"
fill="#000000" stroke="none">
<path d="M2508 5043 c7 -3 16 -2 19 1 4 3 -2 6 -13 5 -11 0 -14 -3 -6 -6z"/>
<path d="M2378 5023 c7 -3 16 -2 19 1 4 3 -2 6 -13 5 -11 0 -14 -3 -6 -6z"/>
<path d="M2180 4976 c-52 -18 -108 -40 -125 -49 l-30 -17 30 6 c17 4 41 12 55
19 14 7 64 24 113 39 48 15 87 29 87 32 0 10 -41 1 -130 -30z"/>
<path d="M3450 4800 c187 -185 291 -402 376 -785 3 -16 8 -25 11 -18 7 20 -55
255 -100 373 -85 222 -207 400 -337 490 -19 13 3 -14 50 -60z"/>
<path d="M1894 4837 c-110 -78 -216 -202 -276 -321 -121 -240 -174 -564 -149
-920 7 -100 17 -212 22 -251 46 -316 79 -481 166 -819 43 -168 46 -191 47
-311 1 -124 0 -132 -26 -176 -42 -71 -46 -73 -177 -74 -103 -1 -121 -4 -160
-26 -104 -57 -179 -154 -212 -274 -17 -63 -18 -281 0 -385 47 -285 97 -431
178 -521 60 -66 103 -83 213 -84 84 0 180 18 180 33 0 3 -81 86 -180 184 -304
303 -367 412 -355 616 12 185 72 280 220 349 51 23 73 27 145 27 70 -1 95 -5
141 -27 146 -68 515 -408 895 -822 65 -71 121 -131 124 -133 8 -3 111 87 195
172 155 157 300 385 413 649 40 92 56 138 102 295 11 37 25 84 32 104 8 28 8
44 -2 67 -7 17 -9 39 -5 48 7 17 8 17 16 -2 8 -16 8 -15 4 8 -3 15 10 89 30
170 115 468 136 914 65 1365 -6 37 -13 82 -16 100 -9 58 -24 34 -24 -40 0 -76
-14 -179 -32 -240 -9 -30 -16 -38 -35 -38 -21 0 -23 4 -23 46 0 25 5 54 10 65
6 10 20 63 32 116 16 78 21 139 23 296 1 108 6 198 11 200 19 5 68 -235 99
-493 22 -178 32 -696 16 -840 -22 -194 -56 -425 -76 -515 -94 -425 -163 -644
-281 -884 -72 -145 -221 -377 -294 -455 -50 -54 -160 -145 -215 -177 -19 -12
-35 -24 -35 -27 0 -4 17 -25 38 -47 21 -22 88 -100 151 -172 62 -73 118 -133
123 -133 20 0 128 102 190 178 129 161 261 402 327 602 18 52 36 104 40 115
21 52 87 294 110 400 5 22 16 76 26 120 25 116 24 114 36 185 6 36 13 91 16
123 9 99 24 75 18 -30 -7 -117 -18 -195 -51 -363 -28 -142 -44 -240 -47 -287
-1 -17 -6 -35 -10 -39 -4 -4 -7 -22 -7 -40 0 -18 -4 -36 -10 -39 -5 -3 -10
-19 -10 -35 0 -16 -4 -32 -10 -35 -5 -3 -10 -17 -10 -30 0 -13 -4 -26 -8 -29
-4 -3 -14 -28 -22 -56 -8 -28 -18 -53 -22 -56 -4 -3 -8 -12 -8 -19 0 -8 -13
-43 -28 -77 -16 -35 -35 -79 -42 -98 -14 -34 -59 -123 -106 -208 -79 -142
-187 -268 -254 -296 -52 -21 -74 -49 -60 -75 12 -23 11 -23 80 22 170 113 354
434 469 822 20 68 27 92 50 183 6 23 15 59 21 80 5 20 19 84 30 142 11 58 24
125 29 150 5 25 14 81 21 125 6 44 15 105 20 135 5 30 12 84 15 120 10 101 13
127 30 250 57 417 80 870 55 1090 -6 58 -7 51 -8 -58 -1 -79 -6 -121 -12 -117
-5 3 -10 30 -10 58 -1 43 -17 146 -47 290 -5 27 -6 27 -26 10 -11 -10 -17 -12
-13 -5 8 13 -10 17 -18 4 -3 -5 -10 -39 -16 -77 -12 -78 -19 -93 -31 -74 -12
19 -11 32 1 24 6 -3 10 -2 10 3 0 6 -6 12 -13 15 -8 3 -20 50 -31 128 -43 305
-84 517 -118 609 -11 30 -22 63 -25 73 -3 9 -9 17 -14 17 -5 0 -9 9 -9 20 0
11 -4 28 -9 38 -5 9 -26 54 -48 99 -36 78 -62 111 -48 61 4 -14 3 -18 -2 -11
-5 6 -39 17 -77 23 l-68 12 -30 -36 c-16 -20 -48 -49 -71 -65 l-42 -29 1 -93
c1 -93 -8 -135 -27 -123 -5 3 -16 0 -24 -6 -8 -7 -15 -10 -15 -7 0 3 -24 -4
-52 -15 -29 -11 -64 -22 -78 -25 -56 -10 -166 -36 -185 -44 -63 -25 -64 -25
-89 54 -9 29 -24 11 -37 -47 -11 -51 -14 -54 -45 -58 -19 -2 -35 1 -37 6 -2 6
-15 1 -30 -11 -24 -18 -32 -20 -69 -11 -24 6 -47 15 -52 19 -6 5 -20 9 -32 9
-13 0 -26 5 -29 10 -4 6 -11 7 -17 4 -15 -9 -28 15 -28 53 0 17 -5 44 -11 60
l-11 28 -14 -39 c-8 -22 -17 -42 -21 -45 -3 -3 -3 2 0 11 3 10 0 21 -7 25 -7
5 -31 37 -54 73 -23 36 -53 76 -67 90 -22 23 -25 32 -24 98 1 40 -2 76 -5 79
-3 4 -7 -3 -7 -15 -3 -41 -4 -45 -18 -50 -11 -4 -12 0 -6 14 4 11 7 29 7 41
-1 12 3 25 8 28 20 12 11 36 -12 33 -15 -2 -31 -20 -51 -58 -77 -147 -96 -269
-98 -605 0 -137 -4 -270 -8 -295 -5 -25 -9 -37 -10 -27 0 10 -8 20 -18 24 -15
6 -16 32 -9 297 3 160 11 320 17 356 13 77 45 182 71 228 25 46 24 47 -26 12
-25 -17 -58 -30 -74 -30 -26 0 -36 -10 -84 -82 -129 -198 -197 -409 -218 -688
-16 -195 -22 -240 -33 -240 -7 0 -8 58 -4 178 16 493 151 829 417 1034 42 32
38 36 -6 5z m1524 -208 c-3 -8 -7 -3 -11 10 -4 17 -3 21 5 13 5 -5 8 -16 6
-23z m-1428 -598 c0 -22 6 -44 15 -51 8 -7 15 -18 15 -25 0 -6 9 -22 19 -34
11 -12 27 -32 36 -44 9 -12 13 -16 10 -9 -4 7 0 12 9 12 9 0 16 8 16 18 0 26
29 102 44 118 12 11 13 7 9 -29 -2 -23 -9 -64 -15 -92 -13 -57 -15 -193 -4
-277 7 -57 7 -58 -17 -58 -30 0 -87 60 -112 116 -9 22 -21 48 -26 59 -24 54
-40 284 -23 329 10 26 24 7 24 -33z m1328 -257 c-8 -108 -23 -167 -46 -187
-13 -10 -14 -8 -8 13 14 52 35 182 42 267 7 75 9 82 14 47 3 -22 3 -85 -2
-140z m440 -488 c8 -360 -26 -757 -98 -1151 -37 -202 -128 -544 -151 -569 -5
-6 -9 -21 -10 -35 0 -15 -3 -21 -5 -14 -5 12 1 47 36 203 45 203 86 463 111
720 6 52 13 298 17 545 6 385 9 454 23 480 9 17 19 43 23 60 l7 29 22 -34 c20
-31 22 -50 25 -234z m-1023 237 c196 -5 224 -8 257 -26 l37 -20 -40 -72 c-53
-97 -52 -118 6 -141 38 -14 66 -16 168 -11 67 4 144 13 171 22 27 8 54 15 60
15 6 0 26 -25 45 -56 l34 -57 -5 -118 c-3 -65 -10 -124 -16 -131 -5 -7 -28
-65 -50 -130 -22 -64 -45 -125 -51 -136 -6 -11 -8 -28 -5 -36 8 -21 -39 -78
-186 -230 -219 -225 -399 -313 -540 -263 -123 43 -271 149 -425 302 -92 93
-129 138 -158 193 -21 40 -40 81 -42 90 -3 9 -11 46 -20 82 -9 36 -18 116 -22
178 -6 120 3 173 40 250 19 39 23 42 60 42 21 0 67 -7 101 -16 37 -10 107 -17
181 -18 104 -1 125 2 155 20 43 25 47 45 21 119 -14 40 -16 55 -7 52 22 -9 14
27 -15 64 -30 38 -28 54 6 44 11 -3 119 -9 240 -12z m-966 -93 c22 0 31 -51
31 -174 0 -83 22 -343 39 -476 19 -144 44 -305 57 -365 12 -55 -12 -13 -30 53
-38 138 -53 262 -85 666 -6 71 -13 132 -17 135 -8 8 3 -308 16 -424 29 -273
42 -347 116 -659 5 -19 3 -27 -3 -23 -6 4 -13 19 -16 34 -3 16 -11 48 -17 73
-25 104 -31 128 -41 185 -73 407 -119 918 -88 977 7 14 14 18 17 10 2 -6 12
-12 21 -12z m1535 -54 c-9 -39 -100 -100 -132 -89 -7 3 -16 12 -21 21 -8 15
-3 17 38 14 54 -4 71 9 77 59 5 44 14 54 31 37 9 -10 12 -24 7 -42z m-1116 1
c2 -27 11 -42 32 -57 32 -23 49 -25 85 -8 29 13 38 8 29 -16 -8 -20 -59 -21
-107 -1 -38 16 -67 60 -67 102 0 39 25 21 28 -20z m1172 18 c0 -8 -7 -15 -15
-15 -9 0 -12 6 -9 15 4 8 10 15 15 15 5 0 9 -7 9 -15z m-1222 -28 c3 -26 2
-27 -17 -15 -26 16 -28 51 -3 46 10 -2 18 -14 20 -31z m942 -20 c0 -8 9 -22
20 -32 32 -29 19 -39 -46 -36 -32 1 -60 4 -62 5 -7 8 12 33 41 54 37 25 47 27
47 9z m-635 -32 c35 -29 27 -39 -38 -49 -52 -9 -61 2 -36 42 25 38 35 39 74 7z
m-825 -80 c0 -19 4 -54 10 -77 5 -24 14 -74 20 -113 18 -106 57 -296 91 -434
37 -152 59 -279 59 -351 0 -54 -20 -160 -30 -160 -3 0 -6 47 -7 104 -1 58 -6
131 -12 163 -17 87 -32 163 -41 208 -46 218 -74 379 -90 515 -5 41 -12 99 -16
128 -5 36 -3 52 5 52 6 0 11 -16 11 -35z m535 -890 c19 -29 35 -58 35 -64 0
-6 3 -11 8 -11 4 0 6 -37 5 -81 -1 -45 3 -93 8 -107 5 -13 12 -41 15 -61 3
-20 10 -44 15 -53 5 -10 10 -88 12 -175 2 -163 -9 -223 -39 -223 -8 0 -14 -5
-14 -12 0 -6 -8 -3 -19 8 -124 130 -322 287 -409 325 -39 17 -37 28 11 53 19
10 55 39 79 63 40 41 43 47 42 96 -1 46 0 49 9 25 6 -16 13 -28 16 -28 3 0 25
26 48 58 62 83 85 150 91 261 l5 94 23 -57 c13 -32 39 -82 59 -111z"/>
<path d="M2840 2839 c-74 -44 -121 -50 -160 -19 -14 11 -31 20 -37 20 -7 0
-13 4 -13 9 0 5 -9 11 -20 14 -36 9 -21 -17 31 -55 43 -33 57 -38 105 -38 57
0 78 9 127 50 30 26 54 61 40 59 -4 0 -37 -18 -73 -40z"/>
<path d="M2600 2670 c-63 -34 -124 -39 -152 -13 -15 13 -23 15 -36 7 -45 -29
-15 -61 67 -73 37 -5 48 -11 59 -35 10 -19 32 -36 69 -53 49 -23 65 -25 141
-21 98 5 136 22 170 74 16 25 31 35 59 39 77 13 104 40 71 73 -17 17 -21 16
-54 -13 -35 -30 -59 -31 -99 -5 -59 40 -96 51 -131 40 -23 -8 -39 -8 -53 -1
-30 16 -51 13 -111 -19z m211 -81 c32 -17 5 -39 -47 -39 -54 0 -65 15 -22 34
41 18 45 18 69 5z"/>
<path d="M3842 3940 c0 -14 3 -34 8 -45 l9 -20 -1 20 c0 11 -4 31 -8 45 l-8
25 0 -25z"/>
<path d="M3862 3790 c0 -25 3 -54 8 -65 8 -18 9 -18 9 5 0 14 -4 43 -8 65 l-9
40 0 -45z"/>
<path d="M1231 1323 c-3 -43 92 -179 223 -322 109 -119 305 -302 411 -383 6
-4 26 -21 45 -37 19 -17 108 -90 197 -163 341 -281 405 -328 442 -328 34 0 35
20 2 33 -17 6 -30 16 -28 21 4 12 -45 56 -61 56 -6 0 -17 8 -24 18 -7 10 -28
29 -45 42 -18 13 -33 28 -33 33 0 12 -26 37 -40 37 -6 0 -28 18 -49 40 -21 22
-42 40 -47 40 -9 0 -32 21 -96 88 -17 17 -36 32 -41 32 -6 0 -36 26 -69 58
-32 31 -75 71 -96 89 -73 63 -92 82 -92 93 0 5 -5 10 -11 10 -11 0 -77 46 -94
67 -12 14 -90 80 -134 113 -18 14 -62 53 -99 88 -36 34 -69 62 -72 62 -4 0
-13 11 -20 25 -7 14 -19 25 -26 25 -6 0 -15 8 -18 17 -6 15 -8 15 -17 3 -8
-12 -9 -9 -7 9 2 18 -3 26 -17 30 -11 4 -20 13 -20 21 0 8 -6 14 -12 13 -7 -2
-13 6 -13 17 0 11 -5 20 -10 20 -6 0 -15 10 -20 23 -5 12 -9 17 -9 10z"/>
<path d="M2585 80 c4 -6 11 -8 16 -5 14 9 11 15 -7 15 -8 0 -12 -5 -9 -10z"/>
</g>
</svg>
